<svg xmlns="http://www.w3.org/2000/svg" xmlns:xlink="http://www.w3.org/1999/xlink" width="360.225" height="640.19" viewBox="0 0 360.225 640.19">
  <defs>
    <clipPath id="clip-path">
      <rect width="360.225" height="640.19" fill="none"/>
    </clipPath>
  </defs>
  <g id="Composant_1_1" data-name="Composant 1 – 1" clip-path="url(#clip-path)">
    <path id="Tracé_1" data-name="Tracé 1" d="M161,717c-10.5,0-21-.079-31.5.065-2.152.03-2.948-.413-2.521-2.569a10.379,10.379,0,0,0,.02-2q0-315.5-.094-631c0-3.749.844-4.6,4.594-4.594q175.751.173,351.5,0c3.423,0,4.1.671,4.094,4.1q-.157,316,0,632c0,3.423-.669,4.1-4.094,4.095q-159.5-.174-319-.095c6.417-2.329,10.679-5.949,8.435-13.676-.168-.578.516-1.505.974-2.147,2.992-4.192,7.859-3.252,11.923-3.733,2.486-.294,2.363,3.515,3.423,5.448s.941,4.689,4.614,3.554c3.329-1.029,4.393-2.955,3.232-5.954-1.5-3.869.01-5.529,3.712-6.133a17.763,17.763,0,0,0,3.309-1.1c4.6-1.731,5.446-4,3.257-8.478-.552-1.131-2.2-2.124-1.266-3.513,4.185-6.191-2.863-11.716-.92-17.726-5.138-3.071-6.362-8.1-7.52-13.54-.647-3.036-4.7-1.661-7.466-2.648,6.037-1.94,5.6-5.654,3.939-10.168-2.007-5.451-3.557-11.069-5.315-16.612-.926-2.92-1.692-5.967-5.973-4.977-1.387.321-1.959-.91-2.521-1.973a6.838,6.838,0,0,1-.1-6.247c2.236-5.147,2.287-10.857,1.915-16.047-.349-4.869-4.011-9.465-7.376-13.194-12.567-13.923-29.558-8.657-34.056,3.471-4.878,13.148-3.2,24.456,9.14,34.037,1.3,1.013,2.93,1.862,3.749,3.193,1.2,1.949,2.974,4.277-.945,5.839-2.357.94-2.613,3.387-1.9,5.609,2.49,7.724,3.914,15.823,7.7,23.086.937,1.8.148,2.573-.642,3.9-2.457,4.129-5.822,7.745-4.581,13.5.665,3.084-1.559,5.68-5.539,6.321-5.5.885-6.42,4.268-3.138,8.543C151.383,695.168,157.381,705.453,161,717ZM293.236,491.215q-.33-.33-.647-.674c.158-2.858-1.542-3.926-4.036-3.825-2.2.09-4.521.6-5.161,3.117s.9,4.03,3.1,4.982c1.145.495,2.9.681,2.135,2.565-.33.811-1.421.709-2.181.171-.978-.694-2.037-2.478-3-.274-.871,2,.553,3.159,2.374,3.523,3.647.729,6.4-.482,7.809-5.167.316,3.135.655,5.148,3.384,5.171,4.886.04,9.772.087,14.658.065,1.223-.006,2.6-.368,1.924-2.016-.875-2.139-.025-3.426,1.887-3.649,2.559-.3,1.276,2.129,1.792,3.272.7,1.539,1.605,2.71,3.357,2.16,2.064-.647,1.11-1.945.365-3.109a2.353,2.353,0,0,1-.11-2.792c.9-1.3,2.532-2.358.257-4.04-1.606-1.187-2.677-1.291-4.326-.057a6.218,6.218,0,0,1-3.813.674c-3-.188-4.429.7-3.645,3.974a2.546,2.546,0,0,1-1.069,3.132,15.179,15.179,0,0,1-.512-1.952c-.311-2.611-.812-5.011-4.17-5.191s-3.728,1.878-3.632,4.513c.035.954-.373,2.212-1.737,1.759-1.458-.484-1.4-1.7-.669-2.835.815-1.264,1.9-2.316.035-3.754C295.923,489.66,294.625,489.953,293.236,491.215Zm34.827-74.456c2.482,4.433,2.809,9.513,4.324,14.232.6,1.863.13,4.848,3.216,4.9,3.014.052,2.77-2.763,3.454-4.7.8-2.268.892-4.8,2.5-6.923,1.693,1.958,1.759,4.387,2.591,6.513.778,1.99.359,5.214,3.675,5.077,2.894-.12,2.642-2.977,3.244-4.925,1.368-4.427,1.669-9.167,3.945-13.333.539-.987,1.441-2.219.056-3.056-1.8-1.085-3.9-.771-5.8-.274-1.477.386-1.225,1.745-.791,2.906.924,2.473.412,4.594-1.7,7.549-.833-3.061-1.343-5.113-1.954-7.134-.53-1.749-.98-3.645-3.444-3.569-2.3.072-2.339,1.974-2.849,3.5-.773,2.313-.715,4.9-2.367,7.195-1.758-1.82-1.71-3.974-1.676-6.083.025-1.527,1.6-3.516-.605-4.367-1.875-.724-4.2-1.473-5.851.835-4.118-1.582-8.421-1.044-12.673-1.13-2.7-.055-3.548,1.014-2.806,3.7.834,3.023,1.589,6.077,1.143,9.316-1.261,9.152-1.217,9.158,8.067,9.023.5-.007,1-.02,1.5,0,1.614.052,3.038-.206,3.311-2.165.185-1.33.366-2.774-.908-3.652-1.3-.9-2.49-.377-3.523.719s-2.4,1.644-3.279.083c-.931-1.645-.007-2.759,1.732-3.349,1.353-.458,3.262-.69,3.022-2.676-.22-1.824-2.065-1.183-3.251-1.518-2.048-.579-2.481-2.17-2.018-3.91.433-1.625,2.085-2.207,3.064-.986C325.23,423.319,326.158,418.428,328.063,416.759ZM420.13,574.567c.132-4.916-2.448-8.66-5.023-12.337a16.444,16.444,0,0,0-25.785-2.072,24.357,24.357,0,0,0-6.13,10.711c-.7,2.678-1.5,4.283-4.69,2.514a4.242,4.242,0,0,0-5.439,1.174c-3.8,4.393-7.475,8.907-11.421,13.167-2.845,3.071-2.884,5.743.156,8.572,1.077,1,2.517,2.116.981,3.727-1.485,1.556-2.262-.314-3.277-.918-4.165-2.481-7.522-1.228-8.446,3.5-.556,2.849-1.615,3.479-4.425,2.867-3.275-.713-4.6,1.1-5.863,4.355-1.765,4.557-4.941,8.459-6.989,13.128-2.233,5.092-3.9,5.737.174,10.386,1.569,1.792,1.885,2.864.365,5.041-2.22,3.181-1.792,7.282-2.136,11-.215,2.318,2.028,3.039,3.957,2.516,3.194-.866,6.978-1.357,9.259-3.4,4.333-3.887,6.926-2.09,9.957,1.262,2.345,2.594,4.306,4.985,1.879,8.653-.5.755-.108,2.3.224,3.37,3.8,12.228,7.751,24.41,11.472,36.661,1.1,3.63,2.779,3.837,5.831,2.211a114.294,114.294,0,0,1,29.006-10.511c4.053-.9,4.229-2.653,2.847-5.89-3.264-7.646-6.069-15.5-9.635-23-2.935-6.17-3.732-13.521-9.793-18.115-1.4-1.061-1.328-3.186-.694-5.14,2.427-7.488,3.41-14.714-4.638-19.808-.815-.516-1.889-1.451-1.272-2.407.89-1.379,2.1-.45,2.925.346,3.422,3.321,6.252,2.046,8.886-1.038,3.774-4.418,7.523-8.859,11.311-13.265,1.354-1.575,1.944-3.4.443-4.94-2.991-3.058-1.389-3.808,1.6-5.483C412.49,587.618,419.611,583.771,420.13,574.567ZM214.886,682.214c-1.333,3.4.011,4.375,3.83,3.153a16.628,16.628,0,0,1,4.458-.337c13.437-.43,26.456,1.957,39.208,5.979,2.86.9,4.412,1.7,3.849-2.862-1.465-11.839-1.858-23.815-3.453-35.632-.583-4.319.735-9.158-2.139-13-2.861-3.821-2.193-6.86,1.064-9.949,6.035-5.724,12.231-11.307,17.216-18.036,3.312-4.471,2.882-7.477-1.772-10.372-1.792-1.114-2.484-2.484-3.41-4.358-2.734-5.533-8.165-8.758-12.807-12.588a3.385,3.385,0,0,0-2.895.028c-2.616,1.227-3.934.192-5.078-2.136-1.229-2.5-3.3-4.968-6.2-3.972-4.71,1.621-7.461-1.079-10.568-3.474-2.894-2.231-5.9-4.331-8.7-6.673-3.139-2.623-5.673-2.082-8,1.019-4.392,5.845-8.914,11.595-13.158,17.544-2.262,3.171-1.963,6.1,1.644,8.506,3.449,2.3,6.63,4.993,9.934,7.507,1.961,1.492,2.624,3.024,2.348,5.858-.548,5.629-1.623,11.585,3.674,16.286,2.054,1.823,1.88,5.011-.63,7.041a5.185,5.185,0,0,0-2.3,3.591C219.029,650.791,216.983,666.232,214.886,682.214ZM467.634,714.6c.275-3.206.309-4.848.57-6.453a112.308,112.308,0,0,1,9.723-31.832c1.455-2.958.82-4.187-2.377-4.678-1.47-.225-2.923-.907-4.4-.493-4.486,1.257-6.345-1.215-7.613-4.958-2.179-6.432-6.239-9.222-13.074-9.23-2,0-4,.016-6-.016-.835-.014-1.77-.1-2.04-1.063-.373-1.33.688-1.667,1.634-2.016,3.591-1.322,7.148-2.747,10.784-3.931,2.93-.954,4.351-2.6,4.2-5.841a122.7,122.7,0,0,1,.052-12.994c.177-2.961-1.124-4.307-3.764-4.828-1.465-.289-2.952-.48-4.4-.826-7.337-1.749-7.549-2.188-5.961-9.436a8.057,8.057,0,0,1,2.294-3.74c2.17-2.415,3.822-5.149,3.686-8.489-.563-13.827,1.465-27.58,1.111-41.4a42.843,42.843,0,0,1,.651-9.425c1.189-6.092-4.047-12.385-10.311-12.957-7.429-.678-13.092,3.5-13.378,10.131-.743,17.263-1.321,34.533-2.07,51.8a16.232,16.232,0,0,0,3.493,11.117c3.652,4.768,1.458,10-4.274,11.186a30.614,30.614,0,0,1-6.411.8c-1.824-.011-3.56.53-3.592,2.617-.094,6.151-.942,12.541.455,18.37.826,3.442,6.637,3.654,9.958,5.77.139.089.3.14.449.22,1.435.784,3.368,1.338,2.745,3.535-.555,1.956-2.419,1.3-3.829,1.438-.495.049-1,0-1.5.011-6.117.124-7.4,1.878-5.3,7.633.474,1.3.709,2.3-.527,2.987-3.8,2.113-4.831,4.838-2.234,8.591.68.982-.092,1.873-.334,2.817-1.392,5.418,3.612,9.466,3.214,14.693-.008.107.2.3.343.34,4.719,1.453,8.985,3.2,10.454,8.812.312,1.191,3.066,1.728,2.952,4.043-.059,1.212.357,2.489,1.763,2.62,1.785.166,2.1-1.3,2.285-2.664A3.1,3.1,0,0,1,439.448,704c2.238-.6,2.693-2.315,2.53-4.28-.274-3.3.571-5.875,4.411-5.6,3.283.235,7.443-.313,7.646,4.932a4.6,4.6,0,0,0,1.585,3.017C459.3,705.9,462.976,709.739,467.634,714.6ZM325.994,586.951c-1.544.939-2.126.2-2.846-.147-8.272-3.963-9.353-3.666-14.227,3.788-1.729,2.644-3.416,5.319-5.226,7.906-1.749,2.5-3.49,4.934-2.292,8.243.542,1.495.012,2.072-1.632,2.082-5.525.031-8.5,2.565-8.691,7.922-.1,2.885-1.674,3.939-3.782,5.209-9.844,5.931-11.852,15.722-4.948,23.857,4.213,4.965,8.178,9.554,8.617,16.916.726,12.2,7.654,23.187,8.17,35.6a2.547,2.547,0,0,0,3.539,2.453c3.939-1.2,7.935-.685,11.9-.761,2.371-.046,3.249-.608,2.628-3.227-3.7-15.613-4.777-31.779-10.892-46.922-2.593-6.419-4.773-13.5-3.125-20.716.842-3.685,2.618-7.152,3.9-10.744.43-1.207.966-2.221,2.409-1.985,7.912,1.293,14.253-3.691,21.433-5.308A2.526,2.526,0,0,0,333,608.161c-.161-2.8.522-5.673-.678-8.387-1.7-3.857.132-3.989,3.186-3.155,3.224.88,6.1.629,8.56-2.23,8.867-10.321,17.851-20.541,26.841-30.755,3.6-4.1,4.285-8.63,1.566-11.635-2.784-3.076-7.058-2.847-11.622.634-9.764,7.447-19.486,14.95-29.3,22.325C327.358,578.106,322.608,580.812,325.994,586.951Zm-9.331-304.534c-.013,20.84,1.32,41.564,5.382,62.05,2.73,13.767,6.354,27.215,14.069,39.195,1.751,2.719,3.59,5.232,7.328,5.212q11.238-.061,22.477,0c3.266.014,4.034-1.507,3.147-4.478a16.711,16.711,0,0,0-8.663-10.455c-9.16-4.738-15.922-11.863-21.109-20.664-7.116-12.076-10.83-25.274-13.362-38.936-3.575-19.294-3.1-38.773-3.078-58.242,0-2.094.513-4.746-2.664-4.965-3.4-.234-3.5,2.412-3.512,4.811C316.641,264.769,316.663,273.593,316.663,282.417Zm-19.516-.367c0-8.992-.016-17.983.011-26.974.006-2.255-.493-4.084-3.218-3.983-2.464.091-2.831,1.891-2.8,3.883.037,2.662.051,5.326.116,7.988.537,22.189-.183,44.247-6.248,65.822-5.588,19.88-14.635,37.152-34.177,46.84-3.614,1.792-4.84,5.337-5.745,8.94-.725,2.883.249,4.388,3.505,4.333,6.991-.117,13.989-.176,20.977.026,3.615.105,5.932-1.345,7.777-4.3a90.469,90.469,0,0,0,9.738-20.711C295.478,337.243,297.384,309.778,297.147,282.05Zm4.028,10.177.237.013c-.344,5.811-.741,11.619-1.015,17.433-.229,4.878,1.225,5.9,7.369,6.047,4.148.1,6.858-.753,6.193-5.822-1.151-8.761-1.157-17.593-1.331-26.415-.078-3.974.9-9.3-1.223-11.605-3.526-3.837-2.464-7.664-2.629-11.508-.313-7.308-.053-14.64-.081-21.962-.005-1.515.962-3.969-1.436-4.018s-1.577,2.5-1.591,3.968c-.085,8.991-.025,17.984-.062,26.976,0,1.449.673,3.485-.8,4.184-3.173,1.507-2.78,4.109-2.873,6.759C301.745,281.6,301.434,286.911,301.175,292.227ZM297.569,424.95c1.148,2.553,2.308,5.1,3.439,7.66,1.047,2.371,2.672,3.945,5.42,3.278,2.632-.638,2.174-2.963,2.279-4.916.232-4.3-.77-8.647.438-12.923.375-1.327,1.694-2.948-.437-3.829a4.806,4.806,0,0,0-4.793.169c-1.5,1.077-.549,2.341-.124,3.569a8.281,8.281,0,0,1-.156,6.773c-2.465-2.782-2.779-6.09-4.385-8.761-1.773-2.949-4.43-2.659-7.048-1.939-3.281.9-1.361,3.348-.931,4.922a23.915,23.915,0,0,1-.365,13.285c-.361,1.249-1.051,2.718.63,3.478a5.713,5.713,0,0,0,4.861-.07c1.633-.8.971-2.236.36-3.452C295.58,429.848,295.743,427.523,297.569,424.95Zm-42.621,11.068c8.794-.014,12.743-3.514,12.892-11.426.121-6.422-4.833-10.5-12.878-10.607-.828-.011-1.666.075-2.485-.015-3.747-.411-4.292,1.488-3.284,4.5a21.21,21.21,0,0,1,.488,11.29C248.346,436.047,248.255,436.028,254.948,436.018Zm108.239.9c3.783-.075,7.023-.766,8.091-5.11.847-3.447-.48-5.836-3.33-7.519a23.862,23.862,0,0,0-3.687-1.478c-1.272-.486-2.52-1.038-2.659-2.613a1.792,1.792,0,0,1,1.265-1.926c1.339-.44,2.56-.412,3.477,1,.738,1.14,1.735,2.115,3.307,1.369a2.461,2.461,0,0,0,1.231-2.515c.028-1.658-.554-3.071-2.161-3.561-3.071-.936-6.263-1.238-9.194.354a6.093,6.093,0,0,0-.382,10.4,25.909,25.909,0,0,0,4.017,1.951c1.322.638,2.9,1.02,3.092,2.865a1.97,1.97,0,0,1-1.584,2.205c-1.753.538-3.263.351-4.235-1.482-.739-1.394-1.906-1.959-3.272-.96a3.109,3.109,0,0,0-.88,3.647C357.383,437.119,360.449,436.78,363.187,436.92ZM275.9,418.542c-.266,2.735-2.275,4.5-3.213,6.773-1.3,3.141-5.279,6.295-3.4,9.328,2.029,3.281,6.774.794,10.274,1.365a4.217,4.217,0,0,0,1-.027c2.312-.18,2.7-1.81,2.322-3.563-.448-2.081-1.9-2.575-3.77-1.552-1.144.627-2.463,1.921-3.546.7-1.258-1.422.554-2.644,1.116-3.9.54-1.209,1.447-2.264,1.917-3.493,1.152-3.007,5.061-5.952,3.1-8.894-2.023-3.03-6.505-.8-9.866-1.284a4.62,4.62,0,0,0-.5,0c-2.329-.064-2.819,1.4-2.59,3.281.266,2.19,1.588,2.755,3.565,2C273.323,418.877,274.1,417.664,275.9,418.542Z" transform="translate(-126.869 -76.905)" fill="#f5f5f5"/>
    <path id="Tracé_2" data-name="Tracé 2" d="M161,717c-3.619-11.547-9.617-21.832-16.933-31.362-3.282-4.275-2.361-7.658,3.138-8.543,3.98-.641,6.2-3.237,5.539-6.321-1.241-5.756,2.124-9.372,4.581-13.5.79-1.328,1.579-2.1.642-3.9-3.783-7.263-5.207-15.362-7.7-23.086-.716-2.222-.46-4.669,1.9-5.609,3.919-1.562,2.144-3.89.945-5.839-.819-1.331-2.444-2.18-3.749-3.193-12.339-9.581-14.018-20.889-9.14-34.037,4.5-12.128,21.489-17.394,34.056-3.471,3.365,3.729,7.027,8.325,7.376,13.194.372,5.19.321,10.9-1.915,16.047a6.838,6.838,0,0,0,.1,6.247c.562,1.063,1.134,2.294,2.521,1.973,4.281-.99,5.047,2.057,5.973,4.977,1.758,5.543,3.308,11.161,5.315,16.612,1.661,4.514,2.1,8.228-3.939,10.168,2.768.987,6.819-.388,7.466,2.648,1.158,5.437,2.382,10.469,7.52,13.54-1.943,6.01,5.105,11.535.92,17.726-.938,1.389.714,2.382,1.266,3.513,2.189,4.481,1.338,6.747-3.257,8.478a17.763,17.763,0,0,1-3.309,1.1c-3.7.6-5.211,2.264-3.712,6.133,1.161,3,.1,4.925-3.232,5.954-3.673,1.135-3.55-1.615-4.614-3.554s-.937-5.742-3.423-5.448c-4.064.481-8.931-.459-11.923,3.733-.458.642-1.142,1.569-.974,2.147,2.244,7.727-2.018,11.347-8.435,13.676Z" transform="translate(-126.869 -76.905)" fill="#b8d5cc"/>
    <path id="Tracé_3" data-name="Tracé 3" d="M420.13,574.567c-.519,9.2-7.64,13.051-14.381,16.829-2.991,1.675-4.593,2.425-1.6,5.483,1.5,1.535.911,3.365-.443,4.94-3.788,4.406-7.537,8.847-11.311,13.265-2.634,3.084-5.464,4.359-8.886,1.038-.822-.8-2.035-1.725-2.925-.346-.617.956.457,1.891,1.272,2.407,8.048,5.094,7.065,12.32,4.638,19.808-.634,1.954-.706,4.079.694,5.14,6.061,4.594,6.858,11.945,9.793,18.115,3.566,7.5,6.371,15.357,9.635,23,1.382,3.237,1.206,4.986-2.847,5.89a114.294,114.294,0,0,0-29.006,10.511c-3.052,1.626-4.728,1.419-5.831-2.211-3.721-12.251-7.671-24.433-11.472-36.661-.332-1.07-.723-2.615-.224-3.37,2.427-3.668.466-6.059-1.879-8.653-3.031-3.352-5.624-5.149-9.957-1.262-2.281,2.047-6.065,2.538-9.259,3.4-1.929.523-4.172-.2-3.957-2.516.344-3.716-.084-7.817,2.136-11,1.52-2.177,1.2-3.249-.365-5.041-4.07-4.649-2.407-5.294-.174-10.386,2.048-4.669,5.224-8.571,6.989-13.128,1.262-3.257,2.588-5.068,5.863-4.355,2.81.612,3.869-.018,4.425-2.867.924-4.729,4.281-5.982,8.446-3.5,1.015.6,1.792,2.474,3.277.918,1.536-1.611.1-2.724-.981-3.727-3.04-2.829-3-5.5-.156-8.572,3.946-4.26,7.618-8.774,11.421-13.167a4.242,4.242,0,0,1,5.439-1.174c3.194,1.769,3.994.164,4.69-2.514a24.357,24.357,0,0,1,6.13-10.711,16.444,16.444,0,0,1,25.785,2.072C417.682,565.907,420.262,569.651,420.13,574.567Z" transform="translate(-126.869 -76.905)" fill="#b8d5cc"/>
    <path id="Tracé_4" data-name="Tracé 4" d="M214.886,682.214c2.1-15.982,4.143-31.423,6.119-46.874a5.185,5.185,0,0,1,2.3-3.591c2.51-2.03,2.684-5.218.63-7.041-5.3-4.7-4.222-10.657-3.674-16.286.276-2.834-.387-4.366-2.348-5.858-3.3-2.514-6.485-5.211-9.934-7.507-3.607-2.4-3.906-5.335-1.644-8.506,4.244-5.949,8.766-11.7,13.158-17.544,2.33-3.1,4.864-3.642,8-1.019,2.8,2.342,5.8,4.442,8.7,6.673,3.107,2.4,5.858,5.095,10.568,3.474,2.9-1,4.969,1.473,6.2,3.972,1.144,2.328,2.462,3.363,5.078,2.136a3.385,3.385,0,0,1,2.895-.028c4.642,3.83,10.073,7.055,12.807,12.588.926,1.874,1.618,3.244,3.41,4.358,4.654,2.9,5.084,5.9,1.772,10.372-4.985,6.729-11.181,12.312-17.216,18.036-3.257,3.089-3.925,6.128-1.064,9.949,2.874,3.839,1.556,8.678,2.139,13,1.595,11.817,1.988,23.793,3.453,35.632.563,4.557-.989,3.764-3.849,2.862-12.752-4.022-25.771-6.409-39.208-5.979a16.628,16.628,0,0,0-4.458.337C214.9,686.589,213.553,685.616,214.886,682.214Z" transform="translate(-126.869 -76.905)" fill="#b8d5cc"/>
    <path id="Tracé_5" data-name="Tracé 5" d="M467.634,714.6c-4.658-4.861-8.331-8.7-12.014-12.533a4.6,4.6,0,0,1-1.585-3.017c-.2-5.245-4.363-4.7-7.646-4.932-3.84-.275-4.685,2.3-4.411,5.6.163,1.965-.292,3.68-2.53,4.28a3.1,3.1,0,0,0-2.392,2.855c-.189,1.365-.5,2.83-2.285,2.664-1.406-.131-1.822-1.408-1.763-2.62.114-2.315-2.64-2.852-2.952-4.043-1.469-5.61-5.735-7.359-10.454-8.812-.141-.044-.351-.233-.343-.34.4-5.227-4.606-9.275-3.214-14.693.242-.944,1.014-1.835.334-2.817-2.6-3.753-1.563-6.478,2.234-8.591,1.236-.689,1-1.687.527-2.987-2.1-5.755-.815-7.509,5.3-7.633.5-.01,1,.038,1.5-.011,1.41-.139,3.274.518,3.829-1.438.623-2.2-1.31-2.751-2.745-3.535-.146-.08-.31-.131-.449-.22-3.321-2.116-9.132-2.328-9.958-5.77-1.4-5.829-.549-12.219-.455-18.37.032-2.087,1.768-2.628,3.592-2.617a30.614,30.614,0,0,0,6.411-.8c5.732-1.183,7.926-6.418,4.274-11.186a16.232,16.232,0,0,1-3.493-11.117c.749-17.263,1.327-34.533,2.07-51.8.286-6.628,5.949-10.809,13.378-10.131,6.264.572,11.5,6.865,10.311,12.957a42.843,42.843,0,0,0-.651,9.425c.354,13.821-1.674,27.574-1.111,41.4.136,3.34-1.516,6.074-3.686,8.489a8.057,8.057,0,0,0-2.294,3.74c-1.588,7.248-1.376,7.687,5.961,9.436,1.451.346,2.938.537,4.4.826,2.64.521,3.941,1.867,3.764,4.828a122.7,122.7,0,0,0-.052,12.994c.152,3.241-1.269,4.887-4.2,5.841-3.636,1.184-7.193,2.609-10.784,3.931-.946.349-2.007.686-1.634,2.016.27.967,1.2,1.049,2.04,1.063,2,.032,4,.014,6,.016,6.835.008,10.895,2.8,13.074,9.23,1.268,3.743,3.127,6.215,7.613,4.958,1.478-.414,2.931.268,4.4.493,3.2.491,3.832,1.72,2.377,4.678a112.308,112.308,0,0,0-9.723,31.832C467.943,709.752,467.909,711.394,467.634,714.6Z" transform="translate(-126.869 -76.905)" fill="#b8d5cc"/>
    <path id="Tracé_6" data-name="Tracé 6" d="M325.994,586.951c-3.386-6.139,1.364-8.845,5.555-11.993,9.817-7.375,19.539-14.878,29.3-22.325,4.564-3.481,8.838-3.71,11.622-.634,2.719,3.005,2.038,7.539-1.566,11.635-8.99,10.214-17.974,20.434-26.841,30.755-2.457,2.859-5.336,3.11-8.56,2.23-3.054-.834-4.89-.7-3.186,3.155,1.2,2.714.517,5.587.678,8.387a2.526,2.526,0,0,1-2.066,2.953c-7.18,1.617-13.521,6.6-21.433,5.308-1.443-.236-1.979.778-2.409,1.985-1.282,3.592-3.058,7.059-3.9,10.744-1.648,7.214.532,14.3,3.125,20.716,6.115,15.143,7.19,31.309,10.892,46.922.621,2.619-.257,3.181-2.628,3.227-3.969.076-7.965-.439-11.9.761a2.547,2.547,0,0,1-3.539-2.453c-.516-12.41-7.444-23.4-8.17-35.6-.439-7.362-4.4-11.951-8.617-16.916-6.9-8.135-4.9-17.926,4.948-23.857,2.108-1.27,3.679-2.324,3.782-5.209.193-5.357,3.166-7.891,8.691-7.922,1.644-.01,2.174-.587,1.632-2.082-1.2-3.309.543-5.743,2.292-8.243,1.81-2.587,3.5-5.262,5.226-7.906,4.874-7.454,5.955-7.751,14.227-3.788C323.868,587.149,324.45,587.89,325.994,586.951Zm-35.041,40.5c.2-3.729-.26-4.38-2.45-3.433-8.676,3.752-10.759,13.492-4.515,20.536,2.525,2.847,4.669,6.029,7.1,8.963.878,1.058,1.153,3.457,2.956,2.779,1.882-.708.477-2.549.259-3.918C292.987,644.095,289.473,636.108,290.953,627.45Z" transform="translate(-126.869 -76.905)" fill="#b8d5cd"/>
    <path id="Tracé_7" data-name="Tracé 7" d="M316.663,282.417c0-8.824-.022-17.648.015-26.472.01-2.4.115-5.045,3.512-4.811,3.177.219,2.667,2.871,2.664,4.965-.023,19.469-.5,38.948,3.078,58.242,2.532,13.662,6.246,26.86,13.362,38.936,5.187,8.8,11.949,15.926,21.109,20.664a16.711,16.711,0,0,1,8.663,10.455c.887,2.971.119,4.492-3.147,4.478q-11.24-.047-22.477,0c-3.738.02-5.577-2.493-7.328-5.212-7.715-11.98-11.339-25.428-14.069-39.195C317.983,323.981,316.65,303.257,316.663,282.417Z" transform="translate(-126.869 -76.905)" fill="#42a58f"/>
    <path id="Tracé_8" data-name="Tracé 8" d="M297.148,282.049c.236,27.729-1.67,55.194-10.068,81.861a90.469,90.469,0,0,1-9.738,20.711c-1.845,2.959-4.162,4.409-7.777,4.3-6.988-.2-13.986-.143-20.977-.026-3.256.055-4.23-1.45-3.505-4.333.905-3.6,2.131-7.148,5.745-8.94,19.542-9.688,28.589-26.96,34.177-46.84,6.065-21.575,6.785-43.633,6.248-65.822-.065-2.662-.079-5.326-.116-7.988-.028-1.992.339-3.792,2.8-3.883,2.725-.1,3.224,1.728,3.218,3.983C297.131,264.067,297.147,273.058,297.148,282.049Z" transform="translate(-126.869 -76.905)" fill="#42a58f"/>
    <path id="Tracé_9" data-name="Tracé 9" d="M301.175,292.227c.259-5.316.57-10.631.758-15.95.093-2.65-.3-5.252,2.873-6.759,1.473-.7.8-2.735.8-4.184.037-8.992-.023-17.985.062-26.976.014-1.465-.819-4.018,1.591-3.968s1.431,2.5,1.436,4.018c.028,7.322-.232,14.654.081,21.962.165,3.844-.9,7.671,2.629,11.508,2.119,2.308,1.145,7.631,1.223,11.605.174,8.822.18,17.654,1.331,26.415.665,5.069-2.045,5.922-6.193,5.822-6.144-.148-7.6-1.169-7.369-6.047.274-5.814.671-11.622,1.015-17.433Z" transform="translate(-126.869 -76.905)" fill="#45a791"/>
    <path id="Tracé_10" data-name="Tracé 10" d="M328.036,415.108c1.646-2.308,3.976-1.559,5.851-.835,2.205.851.63,2.84.605,4.367-.034,2.109-.082,4.263,1.676,6.083,1.652-2.295,1.594-4.882,2.367-7.195.51-1.527.544-3.429,2.849-3.5,2.464-.076,2.914,1.82,3.444,3.569.611,2.021,1.121,4.073,1.954,7.134,2.109-2.955,2.621-5.076,1.7-7.549-.434-1.161-.686-2.52.791-2.906,1.9-.5,4.005-.811,5.8.274,1.385.837.483,2.069-.056,3.056-2.276,4.166-2.577,8.906-3.945,13.333-.6,1.948-.35,4.805-3.244,4.925-3.316.137-2.9-3.087-3.675-5.077-.832-2.126-.9-4.555-2.591-6.513-1.611,2.119-1.7,4.655-2.5,6.923-.684,1.933-.44,4.748-3.454,4.7-3.086-.053-2.618-3.038-3.216-4.9-1.515-4.719-1.842-9.8-4.324-14.231Z" transform="translate(-126.869 -76.905)" fill="#4cad94"/>
    <path id="Tracé_11" data-name="Tracé 11" d="M293.236,491.215c1.389-1.262,2.687-1.555,4.375-.257,1.87,1.438.78,2.49-.035,3.754-.73,1.133-.789,2.351.669,2.835,1.364.453,1.772-.8,1.737-1.759-.1-2.635.282-4.692,3.632-4.513s3.859,2.58,4.17,5.191a15.179,15.179,0,0,0,.512,1.952,2.546,2.546,0,0,0,1.069-3.132c-.784-3.275.646-4.162,3.645-3.974a6.218,6.218,0,0,0,3.813-.674c1.649-1.234,2.72-1.13,4.326.057,2.275,1.682.645,2.744-.257,4.04a2.353,2.353,0,0,0,.11,2.792c.745,1.164,1.7,2.462-.365,3.109-1.752.55-2.661-.621-3.357-2.16-.516-1.143.767-3.571-1.792-3.272-1.912.223-2.762,1.51-1.887,3.649.674,1.648-.7,2.01-1.924,2.016-4.886.022-9.772-.025-14.658-.065-2.729-.023-3.068-2.036-3.384-5.171-1.411,4.685-4.162,5.9-7.809,5.167-1.821-.364-3.245-1.524-2.374-3.523.96-2.2,2.019-.42,3,.274.76.538,1.851.64,2.181-.171.768-1.884-.99-2.07-2.135-2.565-2.2-.952-3.742-2.469-3.1-4.982s2.959-3.027,5.161-3.117c2.494-.1,4.194.967,4.04,3.828-.721.678-2.46.765-1.481,2.424.217.368.895.854,1.135.752C293.333,493.258,293.012,492.1,293.236,491.215Zm-3.561.026a1.34,1.34,0,0,0-1.411-1.123,1.257,1.257,0,0,0-.909.821c-.043.859.722.959,1.379,1.039C289.269,492.043,289.664,491.861,289.675,491.241Z" transform="translate(-126.869 -76.905)" fill="#5cb49d"/>
    <path id="Tracé_12" data-name="Tracé 12" d="M297.569,424.95c-1.826,2.573-1.989,4.9-.812,7.244.611,1.216,1.273,2.649-.36,3.452a5.713,5.713,0,0,1-4.861.07c-1.681-.76-.991-2.229-.63-3.478a23.915,23.915,0,0,0,.365-13.285c-.43-1.574-2.35-4.021.931-4.922,2.618-.72,5.275-1.01,7.048,1.939,1.606,2.671,1.92,5.979,4.385,8.761a8.281,8.281,0,0,0,.156-6.773c-.425-1.228-1.379-2.492.124-3.569a4.806,4.806,0,0,1,4.793-.169c2.131.881.812,2.5.437,3.829-1.208,4.276-.206,8.619-.438,12.923-.105,1.953.353,4.278-2.279,4.916-2.748.667-4.373-.907-5.42-3.278C299.877,430.05,298.717,427.5,297.569,424.95Z" transform="translate(-126.869 -76.905)" fill="#4fae96"/>
    <path id="Tracé_13" data-name="Tracé 13" d="M254.948,436.018c-6.693.01-6.6.029-5.267-6.255a21.21,21.21,0,0,0-.488-11.29c-1.008-3.015-.463-4.914,3.284-4.5.819.09,1.657,0,2.485.015,8.045.1,13,4.185,12.878,10.607C267.691,432.5,263.742,436,254.948,436.018Zm-.8-10.575c.838,2.334-1.621,6.13,3.063,6.575,3.325.315,5.82-2.852,5.646-7.192-.142-3.546-1.26-7.08-5.461-6.788C252.476,418.38,255.115,422.853,254.143,425.443Z" transform="translate(-126.869 -76.905)" fill="#4eaf97"/>
    <path id="Tracé_14" data-name="Tracé 14" d="M363.187,436.92c-2.738-.14-5.8.2-6.9-3.373a3.109,3.109,0,0,1,.88-3.647c1.366-1,2.533-.434,3.272.96.972,1.833,2.482,2.02,4.235,1.482a1.97,1.97,0,0,0,1.584-2.205c-.187-1.845-1.77-2.227-3.092-2.865a25.909,25.909,0,0,1-4.017-1.951,6.093,6.093,0,0,1,.382-10.4c2.931-1.592,6.123-1.29,9.194-.354,1.607.49,2.189,1.9,2.161,3.561a2.461,2.461,0,0,1-1.231,2.515c-1.572.746-2.569-.229-3.307-1.369-.917-1.416-2.138-1.444-3.477-1A1.792,1.792,0,0,0,361.6,420.2c.139,1.575,1.387,2.127,2.659,2.613a23.862,23.862,0,0,1,3.687,1.478c2.85,1.683,4.177,4.072,3.33,7.519C370.21,436.154,366.97,436.845,363.187,436.92Z" transform="translate(-126.869 -76.905)" fill="#51af96"/>
    <path id="Tracé_15" data-name="Tracé 15" d="M328.036,415.108l.027,1.652c-1.9,1.668-2.833,6.559-6.65,1.8-.979-1.221-2.631-.639-3.064.986-.463,1.74-.03,3.331,2.018,3.91,1.186.335,3.031-.306,3.251,1.518.24,1.986-1.669,2.218-3.022,2.676-1.739.59-2.663,1.7-1.732,3.349.883,1.561,2.241,1.019,3.279-.083s2.218-1.618,3.523-.719c1.274.878,1.093,2.322.908,3.652-.273,1.959-1.7,2.217-3.311,2.165-.5-.016-1,0-1.5,0-9.284.135-9.328.129-8.067-9.023.446-3.239-.309-6.293-1.143-9.316-.742-2.687.106-3.756,2.806-3.7C319.615,414.064,323.918,413.526,328.036,415.108Z" transform="translate(-126.869 -76.905)" fill="#4eaf97"/>
    <path id="Tracé_16" data-name="Tracé 16" d="M275.9,418.542c-1.8-.878-2.573.335-3.6.727-1.977.758-3.3.193-3.565-2-.229-1.879.261-3.345,2.59-3.281a4.62,4.62,0,0,1,.5,0c3.361.481,7.843-1.746,9.866,1.284,1.964,2.942-1.945,5.887-3.1,8.894-.47,1.229-1.377,2.284-1.917,3.493-.562,1.26-2.374,2.482-1.116,3.9,1.083,1.225,2.4-.069,3.546-.7,1.866-1.023,3.322-.529,3.77,1.552.377,1.753-.01,3.383-2.322,3.563a4.217,4.217,0,0,1-1,.027c-3.5-.571-8.245,1.916-10.274-1.365-1.877-3.033,2.106-6.187,3.4-9.328C273.621,423.045,275.63,421.277,275.9,418.542Z" transform="translate(-126.869 -76.905)" fill="#4ead96"/>
    <path id="Tracé_17" data-name="Tracé 17" d="M290.953,627.45c-1.48,8.658,2.034,16.645,3.352,24.927.218,1.369,1.623,3.21-.259,3.918-1.8.678-2.078-1.721-2.956-2.779-2.433-2.934-4.577-6.116-7.1-8.963-6.244-7.044-4.161-16.784,4.515-20.536C290.693,623.07,291.158,623.721,290.953,627.45Z" transform="translate(-126.869 -76.905)" fill="#f5f5f5"/>
    <path id="Tracé_18" data-name="Tracé 18" d="M289.678,491.237c-.014.624-.409.806-.944.741-.657-.08-1.422-.18-1.379-1.039a1.257,1.257,0,0,1,.909-.821A1.345,1.345,0,0,1,289.678,491.237Z" transform="translate(-126.869 -76.905)" fill="#e5e5e5"/>
    <path id="Tracé_19" data-name="Tracé 19" d="M293.236,491.215c-.224.889.1,2.043-.989,2.505-.24.1-.918-.384-1.135-.752-.979-1.659.76-1.746,1.481-2.424C292.8,490.77,293.016,490.995,293.236,491.215Z" transform="translate(-126.869 -76.905)" fill="#e5e5e5"/>
    <path id="Tracé_20" data-name="Tracé 20" d="M254.143,425.443c.972-2.59-1.667-7.063,3.248-7.4,4.2-.292,5.319,3.242,5.461,6.788.174,4.34-2.321,7.507-5.646,7.192C252.522,431.573,254.981,427.777,254.143,425.443Z" transform="translate(-126.869 -76.905)" fill="#f5f5f5"/>
  </g>
</svg>
